<svg xmlns="http://www.w3.org/2000/svg" viewBox="0 0 100 100" width="100" height="100">
  <defs>
    <linearGradient id="bgCyber" x1="0%" y1="0%" x2="100%" y2="100%">
      <stop offset="0%" stop-color="#00F5D4"/>
      <stop offset="100%" stop-color="#7B2CBF"/>
    </linearGradient>
  </defs>
  <circle cx="50" cy="50" r="48" fill="url(#bgCyber)"/>
  <path d="M 30 40 Q 50 36 70 40 L 67 66 Q 50 82 33 66 Z" fill="#F0E6EF"/>
  <path d="M 24 45 L 28 26 L 42 16 L 68 18 L 78 35 L 68 45 L 58 28 L 44 42 L 34 32 Z" fill="#00BBF9"/>
  <polygon points="26,48 74,48 71,58 29,58" fill="#F72585" opacity="0.9"/>
  <line x1="29" y1="53" x2="71" y2="53" stroke="#FFFFFF" stroke-width="1.5" opacity="0.8" stroke-dasharray="3 2"/>
  <path d="M 50 72 L 50 86 M 44 78 L 56 78" stroke="#00F5D4" stroke-width="1.5"/>
  <circle cx="50" cy="86" r="2" fill="#F72585"/>
</svg>