<svg xmlns="http://www.w3.org/2000/svg" viewBox="0 0 100 100" width="100" height="100">
  <defs>
    <linearGradient id="bgSeinen" x1="0%" y1="0%" x2="100%" y2="100%">
      <stop offset="0%" stop-color="#1B263B"/>
      <stop offset="100%" stop-color="#0D1B2A"/>
    </linearGradient>
  </defs>
  <circle cx="50" cy="50" r="48" fill="url(#bgSeinen)"/>
  <path d="M 24 95 L 35 70 L 50 78 L 65 70 L 76 95 Z" fill="#1B1B1B"/>
  <path d="M 32 38 Q 50 36 68 38 L 65 65 Q 50 82 35 65 Z" fill="#E0D0C0"/>
  <path d="M 50 36 Q 60 37 68 38 L 65 65 Q 57 74 50 78 Z" fill="rgba(0,0,0,0.18)"/>
  <path d="M 25 40 C 25 18 75 18 75 40 L 70 34 L 62 48 L 56 36 L 48 52 L 40 38 L 30 50 Z" fill="#111111"/>
  <path d="M 36 52 L 46 54" stroke="#111111" stroke-width="2.5" stroke-linecap="round"/>
  <circle cx="41" cy="55" r="1.5" fill="#3A86FF"/>
  <path d="M 64 52 L 54 54" stroke="#111111" stroke-width="2.5" stroke-linecap="round"/>
  <circle cx="59" cy="55" r="1.5" fill="#3A86FF"/>
  <line x1="46" y1="66" x2="54" y2="66" stroke="#111111" stroke-width="1.8" stroke-linecap="round"/>
  <line x1="41" y1="46" x2="41" y2="60" stroke="#8B0000" stroke-width="1.2" opacity="0.7"/>
</svg>